<mxfile host="app.diagrams.net" agent="Mozilla/5.0 (Windows NT 10.0; Win64; x64) AppleWebKit/537.36 (KHTML, like Gecko) Chrome/134.0.0.0 Safari/537.36" version="26.1.0">
  <diagram name="第 1 页" id="AHAPyQRtncF2UGEA-5q6">
    <mxGraphModel dx="2074" dy="1098" grid="1" gridSize="10" guides="1" tooltips="1" connect="1" arrows="1" fold="1" page="1" pageScale="1" pageWidth="827" pageHeight="1169" math="0" shadow="0">
      <root>
        <mxCell id="0" />
        <mxCell id="1" parent="0" />
        <mxCell id="YXs4LQtfpxjAGhwu3uiu-19" value="" style="shape=table;startSize=0;container=1;collapsible=0;childLayout=tableLayout;fontFamily=Times New Roman;fontSize=20;" vertex="1" parent="1">
          <mxGeometry x="100" y="230" width="540" height="50" as="geometry" />
        </mxCell>
        <mxCell id="YXs4LQtfpxjAGhwu3uiu-20" value="" style="shape=tableRow;horizontal=0;startSize=0;swimlaneHead=0;swimlaneBody=0;strokeColor=inherit;top=0;left=0;bottom=0;right=0;collapsible=0;dropTarget=0;fillColor=none;points=[[0,0.5],[1,0.5]];portConstraint=eastwest;fontFamily=Times New Roman;fontSize=20;" vertex="1" parent="YXs4LQtfpxjAGhwu3uiu-19">
          <mxGeometry width="540" height="50" as="geometry" />
        </mxCell>
        <mxCell id="YXs4LQtfpxjAGhwu3uiu-21" value="1" style="shape=partialRectangle;html=1;whiteSpace=wrap;connectable=0;strokeColor=#82b366;overflow=hidden;fillColor=#d5e8d4;top=0;left=0;bottom=0;right=0;pointerEvents=1;fontFamily=Times New Roman;fontSize=20;" vertex="1" parent="YXs4LQtfpxjAGhwu3uiu-20">
          <mxGeometry width="60" height="50" as="geometry">
            <mxRectangle width="60" height="50" as="alternateBounds" />
          </mxGeometry>
        </mxCell>
        <mxCell id="YXs4LQtfpxjAGhwu3uiu-22" value="2" style="shape=partialRectangle;html=1;whiteSpace=wrap;connectable=0;strokeColor=#82b366;overflow=hidden;fillColor=#d5e8d4;top=0;left=0;bottom=0;right=0;pointerEvents=1;fontFamily=Times New Roman;fontSize=20;sketch=1;curveFitting=1;jiggle=2;" vertex="1" parent="YXs4LQtfpxjAGhwu3uiu-20">
          <mxGeometry x="60" width="60" height="50" as="geometry">
            <mxRectangle width="60" height="50" as="alternateBounds" />
          </mxGeometry>
        </mxCell>
        <mxCell id="YXs4LQtfpxjAGhwu3uiu-23" value="2" style="shape=partialRectangle;html=1;whiteSpace=wrap;connectable=0;strokeColor=#82b366;overflow=hidden;fillColor=#d5e8d4;top=0;left=0;bottom=0;right=0;pointerEvents=1;fontFamily=Times New Roman;fontSize=20;sketch=1;curveFitting=1;jiggle=2;" vertex="1" parent="YXs4LQtfpxjAGhwu3uiu-20">
          <mxGeometry x="120" width="60" height="50" as="geometry">
            <mxRectangle width="60" height="50" as="alternateBounds" />
          </mxGeometry>
        </mxCell>
        <mxCell id="YXs4LQtfpxjAGhwu3uiu-24" value="3" style="shape=partialRectangle;html=1;whiteSpace=wrap;connectable=0;strokeColor=#6c8ebf;overflow=hidden;fillColor=#dae8fc;top=0;left=0;bottom=0;right=0;pointerEvents=1;fontFamily=Times New Roman;fontSize=20;" vertex="1" parent="YXs4LQtfpxjAGhwu3uiu-20">
          <mxGeometry x="180" width="60" height="50" as="geometry">
            <mxRectangle width="60" height="50" as="alternateBounds" />
          </mxGeometry>
        </mxCell>
        <mxCell id="YXs4LQtfpxjAGhwu3uiu-25" value="3" style="shape=partialRectangle;html=1;whiteSpace=wrap;connectable=0;strokeColor=#6c8ebf;overflow=hidden;fillColor=#dae8fc;top=0;left=0;bottom=0;right=0;pointerEvents=1;fontFamily=Times New Roman;fontSize=20;" vertex="1" parent="YXs4LQtfpxjAGhwu3uiu-20">
          <mxGeometry x="240" width="60" height="50" as="geometry">
            <mxRectangle width="60" height="50" as="alternateBounds" />
          </mxGeometry>
        </mxCell>
        <mxCell id="YXs4LQtfpxjAGhwu3uiu-26" value="2" style="shape=partialRectangle;html=1;whiteSpace=wrap;connectable=0;strokeColor=#6c8ebf;overflow=hidden;fillColor=#dae8fc;top=0;left=0;bottom=0;right=0;pointerEvents=1;fontFamily=Times New Roman;fontSize=20;sketch=1;curveFitting=1;jiggle=2;" vertex="1" parent="YXs4LQtfpxjAGhwu3uiu-20">
          <mxGeometry x="300" width="60" height="50" as="geometry">
            <mxRectangle width="60" height="50" as="alternateBounds" />
          </mxGeometry>
        </mxCell>
        <mxCell id="YXs4LQtfpxjAGhwu3uiu-27" value="1" style="shape=partialRectangle;html=1;whiteSpace=wrap;connectable=0;strokeColor=#d79b00;overflow=hidden;fillColor=#ffe6cc;top=0;left=0;bottom=0;right=0;pointerEvents=1;fontFamily=Times New Roman;fontSize=20;sketch=1;curveFitting=1;jiggle=2;" vertex="1" parent="YXs4LQtfpxjAGhwu3uiu-20">
          <mxGeometry x="360" width="60" height="50" as="geometry">
            <mxRectangle width="60" height="50" as="alternateBounds" />
          </mxGeometry>
        </mxCell>
        <mxCell id="YXs4LQtfpxjAGhwu3uiu-28" value="3" style="shape=partialRectangle;html=1;whiteSpace=wrap;connectable=0;strokeColor=#d79b00;overflow=hidden;fillColor=#ffe6cc;top=0;left=0;bottom=0;right=0;pointerEvents=1;fontFamily=Times New Roman;fontSize=20;sketch=1;curveFitting=1;jiggle=2;" vertex="1" parent="YXs4LQtfpxjAGhwu3uiu-20">
          <mxGeometry x="420" width="60" height="50" as="geometry">
            <mxRectangle width="60" height="50" as="alternateBounds" />
          </mxGeometry>
        </mxCell>
        <mxCell id="YXs4LQtfpxjAGhwu3uiu-29" value="3" style="shape=partialRectangle;html=1;whiteSpace=wrap;connectable=0;strokeColor=#d79b00;overflow=hidden;fillColor=#ffe6cc;top=0;left=0;bottom=0;right=0;pointerEvents=1;fontFamily=Times New Roman;fontSize=20;sketch=1;curveFitting=1;jiggle=2;" vertex="1" parent="YXs4LQtfpxjAGhwu3uiu-20">
          <mxGeometry x="480" width="60" height="50" as="geometry">
            <mxRectangle width="60" height="50" as="alternateBounds" />
          </mxGeometry>
        </mxCell>
        <mxCell id="YXs4LQtfpxjAGhwu3uiu-30" value="MA" style="text;html=1;align=center;verticalAlign=middle;resizable=0;points=[];autosize=1;strokeColor=none;fillColor=none;fontFamily=Times New Roman;fontSize=20;" vertex="1" parent="1">
          <mxGeometry x="20" y="235" width="60" height="40" as="geometry" />
        </mxCell>
        <mxCell id="YXs4LQtfpxjAGhwu3uiu-43" value="" style="shape=table;startSize=0;container=1;collapsible=0;childLayout=tableLayout;fontFamily=Times New Roman;fontSize=20;" vertex="1" parent="1">
          <mxGeometry x="100" y="330" width="540" height="50" as="geometry" />
        </mxCell>
        <mxCell id="YXs4LQtfpxjAGhwu3uiu-44" value="" style="shape=tableRow;horizontal=0;startSize=0;swimlaneHead=0;swimlaneBody=0;strokeColor=inherit;top=0;left=0;bottom=0;right=0;collapsible=0;dropTarget=0;fillColor=none;points=[[0,0.5],[1,0.5]];portConstraint=eastwest;fontFamily=Times New Roman;fontSize=20;" vertex="1" parent="YXs4LQtfpxjAGhwu3uiu-43">
          <mxGeometry width="540" height="50" as="geometry" />
        </mxCell>
        <mxCell id="YXs4LQtfpxjAGhwu3uiu-45" value="1" style="shape=partialRectangle;html=1;whiteSpace=wrap;connectable=0;strokeColor=#82b366;overflow=hidden;fillColor=#d5e8d4;top=0;left=0;bottom=0;right=0;pointerEvents=1;fontFamily=Times New Roman;fontSize=20;" vertex="1" parent="YXs4LQtfpxjAGhwu3uiu-44">
          <mxGeometry width="60" height="50" as="geometry">
            <mxRectangle width="60" height="50" as="alternateBounds" />
          </mxGeometry>
        </mxCell>
        <mxCell id="YXs4LQtfpxjAGhwu3uiu-46" value="3" style="shape=partialRectangle;html=1;whiteSpace=wrap;connectable=0;strokeColor=#82b366;overflow=hidden;fillColor=#d5e8d4;top=0;left=0;bottom=0;right=0;pointerEvents=1;fontFamily=Times New Roman;fontSize=20;sketch=1;curveFitting=1;jiggle=2;" vertex="1" parent="YXs4LQtfpxjAGhwu3uiu-44">
          <mxGeometry x="60" width="60" height="50" as="geometry">
            <mxRectangle width="60" height="50" as="alternateBounds" />
          </mxGeometry>
        </mxCell>
        <mxCell id="YXs4LQtfpxjAGhwu3uiu-47" value="2" style="shape=partialRectangle;html=1;whiteSpace=wrap;connectable=0;strokeColor=#82b366;overflow=hidden;fillColor=#d5e8d4;top=0;left=0;bottom=0;right=0;pointerEvents=1;fontFamily=Times New Roman;fontSize=20;sketch=1;curveFitting=1;jiggle=2;" vertex="1" parent="YXs4LQtfpxjAGhwu3uiu-44">
          <mxGeometry x="120" width="60" height="50" as="geometry">
            <mxRectangle width="60" height="50" as="alternateBounds" />
          </mxGeometry>
        </mxCell>
        <mxCell id="YXs4LQtfpxjAGhwu3uiu-48" value="3" style="shape=partialRectangle;html=1;whiteSpace=wrap;connectable=0;strokeColor=#6c8ebf;overflow=hidden;fillColor=#dae8fc;top=0;left=0;bottom=0;right=0;pointerEvents=1;fontFamily=Times New Roman;fontSize=20;" vertex="1" parent="YXs4LQtfpxjAGhwu3uiu-44">
          <mxGeometry x="180" width="60" height="50" as="geometry">
            <mxRectangle width="60" height="50" as="alternateBounds" />
          </mxGeometry>
        </mxCell>
        <mxCell id="YXs4LQtfpxjAGhwu3uiu-49" value="3" style="shape=partialRectangle;html=1;whiteSpace=wrap;connectable=0;strokeColor=#6c8ebf;overflow=hidden;fillColor=#dae8fc;top=0;left=0;bottom=0;right=0;pointerEvents=1;fontFamily=Times New Roman;fontSize=20;" vertex="1" parent="YXs4LQtfpxjAGhwu3uiu-44">
          <mxGeometry x="240" width="60" height="50" as="geometry">
            <mxRectangle width="60" height="50" as="alternateBounds" />
          </mxGeometry>
        </mxCell>
        <mxCell id="YXs4LQtfpxjAGhwu3uiu-50" value="1" style="shape=partialRectangle;html=1;whiteSpace=wrap;connectable=0;strokeColor=#6c8ebf;overflow=hidden;fillColor=#dae8fc;top=0;left=0;bottom=0;right=0;pointerEvents=1;fontFamily=Times New Roman;fontSize=20;sketch=1;curveFitting=1;jiggle=2;" vertex="1" parent="YXs4LQtfpxjAGhwu3uiu-44">
          <mxGeometry x="300" width="60" height="50" as="geometry">
            <mxRectangle width="60" height="50" as="alternateBounds" />
          </mxGeometry>
        </mxCell>
        <mxCell id="YXs4LQtfpxjAGhwu3uiu-51" value="3" style="shape=partialRectangle;html=1;whiteSpace=wrap;connectable=0;strokeColor=#d79b00;overflow=hidden;fillColor=#ffe6cc;top=0;left=0;bottom=0;right=0;pointerEvents=1;fontFamily=Times New Roman;fontSize=20;sketch=1;curveFitting=1;jiggle=2;" vertex="1" parent="YXs4LQtfpxjAGhwu3uiu-44">
          <mxGeometry x="360" width="60" height="50" as="geometry">
            <mxRectangle width="60" height="50" as="alternateBounds" />
          </mxGeometry>
        </mxCell>
        <mxCell id="YXs4LQtfpxjAGhwu3uiu-52" value="3" style="shape=partialRectangle;html=1;whiteSpace=wrap;connectable=0;strokeColor=#d79b00;overflow=hidden;fillColor=#ffe6cc;top=0;left=0;bottom=0;right=0;pointerEvents=1;fontFamily=Times New Roman;fontSize=20;sketch=1;curveFitting=1;jiggle=2;" vertex="1" parent="YXs4LQtfpxjAGhwu3uiu-44">
          <mxGeometry x="420" width="60" height="50" as="geometry">
            <mxRectangle width="60" height="50" as="alternateBounds" />
          </mxGeometry>
        </mxCell>
        <mxCell id="YXs4LQtfpxjAGhwu3uiu-53" value="2" style="shape=partialRectangle;html=1;whiteSpace=wrap;connectable=0;strokeColor=#d79b00;overflow=hidden;fillColor=#ffe6cc;top=0;left=0;bottom=0;right=0;pointerEvents=1;fontFamily=Times New Roman;fontSize=20;sketch=1;curveFitting=1;jiggle=2;" vertex="1" parent="YXs4LQtfpxjAGhwu3uiu-44">
          <mxGeometry x="480" width="60" height="50" as="geometry">
            <mxRectangle width="60" height="50" as="alternateBounds" />
          </mxGeometry>
        </mxCell>
        <mxCell id="YXs4LQtfpxjAGhwu3uiu-54" value="MA" style="text;html=1;align=center;verticalAlign=middle;resizable=0;points=[];autosize=1;strokeColor=none;fillColor=none;fontFamily=Times New Roman;fontSize=20;" vertex="1" parent="1">
          <mxGeometry x="20" y="335" width="60" height="40" as="geometry" />
        </mxCell>
        <mxCell id="YXs4LQtfpxjAGhwu3uiu-55" value="" style="endArrow=classic;html=1;rounded=0;exitX=0.17;exitY=1.009;exitDx=0;exitDy=0;exitPerimeter=0;fontFamily=Times New Roman;" edge="1" parent="1" source="YXs4LQtfpxjAGhwu3uiu-20">
          <mxGeometry width="50" height="50" relative="1" as="geometry">
            <mxPoint x="330" y="310" as="sourcePoint" />
            <mxPoint x="192" y="330" as="targetPoint" />
          </mxGeometry>
        </mxCell>
        <mxCell id="YXs4LQtfpxjAGhwu3uiu-56" value="" style="endArrow=classic;html=1;rounded=0;exitX=0.17;exitY=1.009;exitDx=0;exitDy=0;exitPerimeter=0;fontFamily=Times New Roman;" edge="1" parent="1">
          <mxGeometry width="50" height="50" relative="1" as="geometry">
            <mxPoint x="250" y="280" as="sourcePoint" />
            <mxPoint x="250" y="330" as="targetPoint" />
          </mxGeometry>
        </mxCell>
        <mxCell id="YXs4LQtfpxjAGhwu3uiu-57" value="" style="endArrow=classic;html=1;rounded=0;exitX=0.17;exitY=1.009;exitDx=0;exitDy=0;exitPerimeter=0;fontFamily=Times New Roman;" edge="1" parent="1">
          <mxGeometry width="50" height="50" relative="1" as="geometry">
            <mxPoint x="490" y="280" as="sourcePoint" />
            <mxPoint x="490" y="330" as="targetPoint" />
          </mxGeometry>
        </mxCell>
        <mxCell id="YXs4LQtfpxjAGhwu3uiu-58" value="" style="endArrow=classic;html=1;rounded=0;exitX=0.17;exitY=1.009;exitDx=0;exitDy=0;exitPerimeter=0;fontFamily=Times New Roman;" edge="1" parent="1">
          <mxGeometry width="50" height="50" relative="1" as="geometry">
            <mxPoint x="550" y="280" as="sourcePoint" />
            <mxPoint x="550" y="330" as="targetPoint" />
          </mxGeometry>
        </mxCell>
        <mxCell id="YXs4LQtfpxjAGhwu3uiu-59" value="" style="endArrow=classic;html=1;rounded=0;exitX=0.17;exitY=1.009;exitDx=0;exitDy=0;exitPerimeter=0;fontFamily=Times New Roman;" edge="1" parent="1">
          <mxGeometry width="50" height="50" relative="1" as="geometry">
            <mxPoint x="610" y="280" as="sourcePoint" />
            <mxPoint x="610" y="330" as="targetPoint" />
          </mxGeometry>
        </mxCell>
        <mxCell id="YXs4LQtfpxjAGhwu3uiu-60" value="" style="endArrow=classic;html=1;rounded=0;exitX=0.17;exitY=1.009;exitDx=0;exitDy=0;exitPerimeter=0;fontFamily=Times New Roman;" edge="1" parent="1">
          <mxGeometry width="50" height="50" relative="1" as="geometry">
            <mxPoint x="430" y="280" as="sourcePoint" />
            <mxPoint x="430" y="330" as="targetPoint" />
          </mxGeometry>
        </mxCell>
        <mxCell id="YXs4LQtfpxjAGhwu3uiu-72" value="RA" style="text;html=1;align=center;verticalAlign=middle;resizable=0;points=[];autosize=1;strokeColor=none;fillColor=none;fontFamily=Times New Roman;fontSize=20;" vertex="1" parent="1">
          <mxGeometry x="25" y="435" width="50" height="40" as="geometry" />
        </mxCell>
        <mxCell id="YXs4LQtfpxjAGhwu3uiu-73" value="" style="shape=table;startSize=0;container=1;collapsible=0;childLayout=tableLayout;fontFamily=Times New Roman;fontSize=20;" vertex="1" parent="1">
          <mxGeometry x="100" y="430" width="720" height="50" as="geometry" />
        </mxCell>
        <mxCell id="YXs4LQtfpxjAGhwu3uiu-74" value="" style="shape=tableRow;horizontal=0;startSize=0;swimlaneHead=0;swimlaneBody=0;strokeColor=inherit;top=0;left=0;bottom=0;right=0;collapsible=0;dropTarget=0;fillColor=none;points=[[0,0.5],[1,0.5]];portConstraint=eastwest;fontFamily=Times New Roman;fontSize=20;" vertex="1" parent="YXs4LQtfpxjAGhwu3uiu-73">
          <mxGeometry width="720" height="50" as="geometry" />
        </mxCell>
        <mxCell id="YXs4LQtfpxjAGhwu3uiu-75" value="2" style="shape=partialRectangle;html=1;whiteSpace=wrap;connectable=0;strokeColor=#82b366;overflow=hidden;fillColor=#d5e8d4;top=0;left=0;bottom=0;right=0;pointerEvents=1;fontFamily=Times New Roman;fontSize=20;sketch=1;curveFitting=1;jiggle=2;" vertex="1" parent="YXs4LQtfpxjAGhwu3uiu-74">
          <mxGeometry width="60" height="50" as="geometry">
            <mxRectangle width="60" height="50" as="alternateBounds" />
          </mxGeometry>
        </mxCell>
        <mxCell id="YXs4LQtfpxjAGhwu3uiu-76" value="2" style="shape=partialRectangle;html=1;whiteSpace=wrap;connectable=0;strokeColor=#6c8ebf;overflow=hidden;fillColor=#dae8fc;top=0;left=0;bottom=0;right=0;pointerEvents=1;fontFamily=Times New Roman;fontSize=20;sketch=1;curveFitting=1;jiggle=2;" vertex="1" parent="YXs4LQtfpxjAGhwu3uiu-74">
          <mxGeometry x="60" width="60" height="50" as="geometry">
            <mxRectangle width="60" height="50" as="alternateBounds" />
          </mxGeometry>
        </mxCell>
        <mxCell id="YXs4LQtfpxjAGhwu3uiu-77" value="1" style="shape=partialRectangle;html=1;whiteSpace=wrap;connectable=0;strokeColor=#d79b00;overflow=hidden;fillColor=#ffe6cc;top=0;left=0;bottom=0;right=0;pointerEvents=1;fontFamily=Times New Roman;fontSize=20;" vertex="1" parent="YXs4LQtfpxjAGhwu3uiu-74">
          <mxGeometry x="120" width="60" height="50" as="geometry">
            <mxRectangle width="60" height="50" as="alternateBounds" />
          </mxGeometry>
        </mxCell>
        <mxCell id="YXs4LQtfpxjAGhwu3uiu-78" value="1" style="shape=partialRectangle;html=1;whiteSpace=wrap;connectable=0;strokeColor=#82b366;overflow=hidden;fillColor=#d5e8d4;top=0;left=0;bottom=0;right=0;pointerEvents=1;fontFamily=Times New Roman;fontSize=20;" vertex="1" parent="YXs4LQtfpxjAGhwu3uiu-74">
          <mxGeometry x="180" width="60" height="50" as="geometry">
            <mxRectangle width="60" height="50" as="alternateBounds" />
          </mxGeometry>
        </mxCell>
        <mxCell id="YXs4LQtfpxjAGhwu3uiu-79" value="2" style="shape=partialRectangle;html=1;whiteSpace=wrap;connectable=0;strokeColor=#6c8ebf;overflow=hidden;fillColor=#dae8fc;top=0;left=0;bottom=0;right=0;pointerEvents=1;fontFamily=Times New Roman;fontSize=20;sketch=1;curveFitting=1;jiggle=2;" vertex="1" parent="YXs4LQtfpxjAGhwu3uiu-74">
          <mxGeometry x="240" width="60" height="50" as="geometry">
            <mxRectangle width="60" height="50" as="alternateBounds" />
          </mxGeometry>
        </mxCell>
        <mxCell id="YXs4LQtfpxjAGhwu3uiu-80" value="1" style="shape=partialRectangle;html=1;whiteSpace=wrap;connectable=0;strokeColor=#82b366;overflow=hidden;fillColor=#d5e8d4;top=0;left=0;bottom=0;right=0;pointerEvents=1;fontFamily=Times New Roman;fontSize=20;" vertex="1" parent="YXs4LQtfpxjAGhwu3uiu-74">
          <mxGeometry x="300" width="60" height="50" as="geometry">
            <mxRectangle width="60" height="50" as="alternateBounds" />
          </mxGeometry>
        </mxCell>
        <mxCell id="YXs4LQtfpxjAGhwu3uiu-81" value="1" style="shape=partialRectangle;html=1;whiteSpace=wrap;connectable=0;strokeColor=#d79b00;overflow=hidden;fillColor=#ffe6cc;top=0;left=0;bottom=0;right=0;pointerEvents=1;fontFamily=Times New Roman;fontSize=20;" vertex="1" parent="YXs4LQtfpxjAGhwu3uiu-74">
          <mxGeometry x="360" width="60" height="50" as="geometry">
            <mxRectangle width="60" height="50" as="alternateBounds" />
          </mxGeometry>
        </mxCell>
        <mxCell id="YXs4LQtfpxjAGhwu3uiu-82" value="1" style="shape=partialRectangle;html=1;whiteSpace=wrap;connectable=0;strokeColor=#d79b00;overflow=hidden;fillColor=#ffe6cc;top=0;left=0;bottom=0;right=0;pointerEvents=1;fontFamily=Times New Roman;fontSize=20;" vertex="1" parent="YXs4LQtfpxjAGhwu3uiu-74">
          <mxGeometry x="420" width="60" height="50" as="geometry">
            <mxRectangle width="60" height="50" as="alternateBounds" />
          </mxGeometry>
        </mxCell>
        <mxCell id="YXs4LQtfpxjAGhwu3uiu-83" value="1" style="shape=partialRectangle;html=1;whiteSpace=wrap;connectable=0;strokeColor=#6c8ebf;overflow=hidden;fillColor=#dae8fc;top=0;left=0;bottom=0;right=0;pointerEvents=1;fontFamily=Times New Roman;fontSize=20;" vertex="1" parent="YXs4LQtfpxjAGhwu3uiu-74">
          <mxGeometry x="480" width="60" height="50" as="geometry">
            <mxRectangle width="60" height="50" as="alternateBounds" />
          </mxGeometry>
        </mxCell>
        <mxCell id="YXs4LQtfpxjAGhwu3uiu-84" value="2" style="shape=partialRectangle;html=1;whiteSpace=wrap;connectable=0;strokeColor=#82b366;overflow=hidden;fillColor=#d5e8d4;top=0;left=0;bottom=0;right=0;pointerEvents=1;fontFamily=Times New Roman;fontSize=20;" vertex="1" parent="YXs4LQtfpxjAGhwu3uiu-74">
          <mxGeometry x="540" width="60" height="50" as="geometry">
            <mxRectangle width="60" height="50" as="alternateBounds" />
          </mxGeometry>
        </mxCell>
        <mxCell id="YXs4LQtfpxjAGhwu3uiu-85" value="2" style="shape=partialRectangle;html=1;whiteSpace=wrap;connectable=0;strokeColor=#6c8ebf;overflow=hidden;fillColor=#dae8fc;top=0;left=0;bottom=0;right=0;pointerEvents=1;fontFamily=Times New Roman;fontSize=20;" vertex="1" parent="YXs4LQtfpxjAGhwu3uiu-74">
          <mxGeometry x="600" width="60" height="50" as="geometry">
            <mxRectangle width="60" height="50" as="alternateBounds" />
          </mxGeometry>
        </mxCell>
        <mxCell id="YXs4LQtfpxjAGhwu3uiu-86" value="1" style="shape=partialRectangle;html=1;whiteSpace=wrap;connectable=0;strokeColor=#d79b00;overflow=hidden;fillColor=#ffe6cc;top=0;left=0;bottom=0;right=0;pointerEvents=1;fontFamily=Times New Roman;fontSize=20;" vertex="1" parent="YXs4LQtfpxjAGhwu3uiu-74">
          <mxGeometry x="660" width="60" height="50" as="geometry">
            <mxRectangle width="60" height="50" as="alternateBounds" />
          </mxGeometry>
        </mxCell>
        <mxCell id="YXs4LQtfpxjAGhwu3uiu-87" value="RA" style="text;html=1;align=center;verticalAlign=middle;resizable=0;points=[];autosize=1;strokeColor=none;fillColor=none;fontFamily=Times New Roman;fontSize=20;" vertex="1" parent="1">
          <mxGeometry x="25" y="535" width="50" height="40" as="geometry" />
        </mxCell>
        <mxCell id="YXs4LQtfpxjAGhwu3uiu-88" value="" style="shape=table;startSize=0;container=1;collapsible=0;childLayout=tableLayout;fontFamily=Times New Roman;fontSize=20;" vertex="1" parent="1">
          <mxGeometry x="100" y="530" width="720" height="50" as="geometry" />
        </mxCell>
        <mxCell id="YXs4LQtfpxjAGhwu3uiu-89" value="" style="shape=tableRow;horizontal=0;startSize=0;swimlaneHead=0;swimlaneBody=0;strokeColor=inherit;top=0;left=0;bottom=0;right=0;collapsible=0;dropTarget=0;fillColor=none;points=[[0,0.5],[1,0.5]];portConstraint=eastwest;fontFamily=Times New Roman;fontSize=20;" vertex="1" parent="YXs4LQtfpxjAGhwu3uiu-88">
          <mxGeometry width="720" height="50" as="geometry" />
        </mxCell>
        <mxCell id="YXs4LQtfpxjAGhwu3uiu-90" value="1" style="shape=partialRectangle;html=1;whiteSpace=wrap;connectable=0;strokeColor=#82b366;overflow=hidden;fillColor=#d5e8d4;top=0;left=0;bottom=0;right=0;pointerEvents=1;fontFamily=Times New Roman;fontSize=20;sketch=1;curveFitting=1;jiggle=2;" vertex="1" parent="YXs4LQtfpxjAGhwu3uiu-89">
          <mxGeometry width="60" height="50" as="geometry">
            <mxRectangle width="60" height="50" as="alternateBounds" />
          </mxGeometry>
        </mxCell>
        <mxCell id="YXs4LQtfpxjAGhwu3uiu-91" value="1" style="shape=partialRectangle;html=1;whiteSpace=wrap;connectable=0;strokeColor=#6c8ebf;overflow=hidden;fillColor=#dae8fc;top=0;left=0;bottom=0;right=0;pointerEvents=1;fontFamily=Times New Roman;fontSize=20;sketch=1;curveFitting=1;jiggle=2;" vertex="1" parent="YXs4LQtfpxjAGhwu3uiu-89">
          <mxGeometry x="60" width="60" height="50" as="geometry">
            <mxRectangle width="60" height="50" as="alternateBounds" />
          </mxGeometry>
        </mxCell>
        <mxCell id="YXs4LQtfpxjAGhwu3uiu-92" value="1" style="shape=partialRectangle;html=1;whiteSpace=wrap;connectable=0;strokeColor=#d79b00;overflow=hidden;fillColor=#ffe6cc;top=0;left=0;bottom=0;right=0;pointerEvents=1;fontFamily=Times New Roman;fontSize=20;" vertex="1" parent="YXs4LQtfpxjAGhwu3uiu-89">
          <mxGeometry x="120" width="60" height="50" as="geometry">
            <mxRectangle width="60" height="50" as="alternateBounds" />
          </mxGeometry>
        </mxCell>
        <mxCell id="YXs4LQtfpxjAGhwu3uiu-93" value="1" style="shape=partialRectangle;html=1;whiteSpace=wrap;connectable=0;strokeColor=#82b366;overflow=hidden;fillColor=#d5e8d4;top=0;left=0;bottom=0;right=0;pointerEvents=1;fontFamily=Times New Roman;fontSize=20;" vertex="1" parent="YXs4LQtfpxjAGhwu3uiu-89">
          <mxGeometry x="180" width="60" height="50" as="geometry">
            <mxRectangle width="60" height="50" as="alternateBounds" />
          </mxGeometry>
        </mxCell>
        <mxCell id="YXs4LQtfpxjAGhwu3uiu-94" value="2" style="shape=partialRectangle;html=1;whiteSpace=wrap;connectable=0;strokeColor=#6c8ebf;overflow=hidden;fillColor=#dae8fc;top=0;left=0;bottom=0;right=0;pointerEvents=1;fontFamily=Times New Roman;fontSize=20;sketch=1;curveFitting=1;jiggle=2;" vertex="1" parent="YXs4LQtfpxjAGhwu3uiu-89">
          <mxGeometry x="240" width="60" height="50" as="geometry">
            <mxRectangle width="60" height="50" as="alternateBounds" />
          </mxGeometry>
        </mxCell>
        <mxCell id="YXs4LQtfpxjAGhwu3uiu-95" value="1" style="shape=partialRectangle;html=1;whiteSpace=wrap;connectable=0;strokeColor=#82b366;overflow=hidden;fillColor=#d5e8d4;top=0;left=0;bottom=0;right=0;pointerEvents=1;fontFamily=Times New Roman;fontSize=20;" vertex="1" parent="YXs4LQtfpxjAGhwu3uiu-89">
          <mxGeometry x="300" width="60" height="50" as="geometry">
            <mxRectangle width="60" height="50" as="alternateBounds" />
          </mxGeometry>
        </mxCell>
        <mxCell id="YXs4LQtfpxjAGhwu3uiu-96" value="1" style="shape=partialRectangle;html=1;whiteSpace=wrap;connectable=0;strokeColor=#d79b00;overflow=hidden;fillColor=#ffe6cc;top=0;left=0;bottom=0;right=0;pointerEvents=1;fontFamily=Times New Roman;fontSize=20;" vertex="1" parent="YXs4LQtfpxjAGhwu3uiu-89">
          <mxGeometry x="360" width="60" height="50" as="geometry">
            <mxRectangle width="60" height="50" as="alternateBounds" />
          </mxGeometry>
        </mxCell>
        <mxCell id="YXs4LQtfpxjAGhwu3uiu-97" value="1" style="shape=partialRectangle;html=1;whiteSpace=wrap;connectable=0;strokeColor=#d79b00;overflow=hidden;fillColor=#ffe6cc;top=0;left=0;bottom=0;right=0;pointerEvents=1;fontFamily=Times New Roman;fontSize=20;" vertex="1" parent="YXs4LQtfpxjAGhwu3uiu-89">
          <mxGeometry x="420" width="60" height="50" as="geometry">
            <mxRectangle width="60" height="50" as="alternateBounds" />
          </mxGeometry>
        </mxCell>
        <mxCell id="YXs4LQtfpxjAGhwu3uiu-98" value="1" style="shape=partialRectangle;html=1;whiteSpace=wrap;connectable=0;strokeColor=#6c8ebf;overflow=hidden;fillColor=#dae8fc;top=0;left=0;bottom=0;right=0;pointerEvents=1;fontFamily=Times New Roman;fontSize=20;" vertex="1" parent="YXs4LQtfpxjAGhwu3uiu-89">
          <mxGeometry x="480" width="60" height="50" as="geometry">
            <mxRectangle width="60" height="50" as="alternateBounds" />
          </mxGeometry>
        </mxCell>
        <mxCell id="YXs4LQtfpxjAGhwu3uiu-99" value="2" style="shape=partialRectangle;html=1;whiteSpace=wrap;connectable=0;strokeColor=#82b366;overflow=hidden;fillColor=#d5e8d4;top=0;left=0;bottom=0;right=0;pointerEvents=1;fontFamily=Times New Roman;fontSize=20;" vertex="1" parent="YXs4LQtfpxjAGhwu3uiu-89">
          <mxGeometry x="540" width="60" height="50" as="geometry">
            <mxRectangle width="60" height="50" as="alternateBounds" />
          </mxGeometry>
        </mxCell>
        <mxCell id="YXs4LQtfpxjAGhwu3uiu-100" value="2" style="shape=partialRectangle;html=1;whiteSpace=wrap;connectable=0;strokeColor=#6c8ebf;overflow=hidden;fillColor=#dae8fc;top=0;left=0;bottom=0;right=0;pointerEvents=1;fontFamily=Times New Roman;fontSize=20;" vertex="1" parent="YXs4LQtfpxjAGhwu3uiu-89">
          <mxGeometry x="600" width="60" height="50" as="geometry">
            <mxRectangle width="60" height="50" as="alternateBounds" />
          </mxGeometry>
        </mxCell>
        <mxCell id="YXs4LQtfpxjAGhwu3uiu-101" value="1" style="shape=partialRectangle;html=1;whiteSpace=wrap;connectable=0;strokeColor=#d79b00;overflow=hidden;fillColor=#ffe6cc;top=0;left=0;bottom=0;right=0;pointerEvents=1;fontFamily=Times New Roman;fontSize=20;" vertex="1" parent="YXs4LQtfpxjAGhwu3uiu-89">
          <mxGeometry x="660" width="60" height="50" as="geometry">
            <mxRectangle width="60" height="50" as="alternateBounds" />
          </mxGeometry>
        </mxCell>
        <mxCell id="YXs4LQtfpxjAGhwu3uiu-102" value="" style="endArrow=classic;html=1;rounded=0;exitX=0.17;exitY=1.009;exitDx=0;exitDy=0;exitPerimeter=0;fontFamily=Times New Roman;" edge="1" parent="1">
          <mxGeometry width="50" height="50" relative="1" as="geometry">
            <mxPoint x="130" y="480" as="sourcePoint" />
            <mxPoint x="130" y="530" as="targetPoint" />
          </mxGeometry>
        </mxCell>
        <mxCell id="YXs4LQtfpxjAGhwu3uiu-103" value="" style="endArrow=classic;html=1;rounded=0;exitX=0.17;exitY=1.009;exitDx=0;exitDy=0;exitPerimeter=0;fontFamily=Times New Roman;" edge="1" parent="1">
          <mxGeometry width="50" height="50" relative="1" as="geometry">
            <mxPoint x="190" y="480" as="sourcePoint" />
            <mxPoint x="190" y="530" as="targetPoint" />
          </mxGeometry>
        </mxCell>
        <mxCell id="YXs4LQtfpxjAGhwu3uiu-104" value="" style="endArrow=classic;html=1;rounded=0;exitX=0.17;exitY=1.009;exitDx=0;exitDy=0;exitPerimeter=0;fontFamily=Times New Roman;" edge="1" parent="1">
          <mxGeometry width="50" height="50" relative="1" as="geometry">
            <mxPoint x="369.86" y="480" as="sourcePoint" />
            <mxPoint x="369.86" y="530" as="targetPoint" />
          </mxGeometry>
        </mxCell>
        <mxCell id="YXs4LQtfpxjAGhwu3uiu-106" value="" style="shape=curlyBracket;whiteSpace=wrap;html=1;rounded=1;labelPosition=left;verticalLabelPosition=middle;align=right;verticalAlign=middle;rotation=90;fontFamily=Times New Roman;" vertex="1" parent="1">
          <mxGeometry x="180" y="150" width="20" height="120" as="geometry" />
        </mxCell>
        <mxCell id="YXs4LQtfpxjAGhwu3uiu-107" value="" style="shape=curlyBracket;whiteSpace=wrap;html=1;rounded=1;labelPosition=left;verticalLabelPosition=middle;align=right;verticalAlign=middle;rotation=90;fontFamily=Times New Roman;" vertex="1" parent="1">
          <mxGeometry x="360" y="150" width="20" height="120" as="geometry" />
        </mxCell>
        <mxCell id="YXs4LQtfpxjAGhwu3uiu-108" value="" style="shape=curlyBracket;whiteSpace=wrap;html=1;rounded=1;labelPosition=left;verticalLabelPosition=middle;align=right;verticalAlign=middle;rotation=90;fontFamily=Times New Roman;" vertex="1" parent="1">
          <mxGeometry x="540" y="150" width="20" height="120" as="geometry" />
        </mxCell>
        <mxCell id="YXs4LQtfpxjAGhwu3uiu-110" value="Job&lt;sub&gt;1&lt;/sub&gt;" style="text;html=1;align=center;verticalAlign=middle;resizable=0;points=[];autosize=1;strokeColor=none;fillColor=none;fontSize=20;fontFamily=Times New Roman;fontStyle=2" vertex="1" parent="1">
          <mxGeometry x="160" y="173" width="60" height="40" as="geometry" />
        </mxCell>
        <mxCell id="YXs4LQtfpxjAGhwu3uiu-111" value="Job&lt;sub&gt;1&lt;/sub&gt;" style="text;html=1;align=center;verticalAlign=middle;resizable=0;points=[];autosize=1;strokeColor=none;fillColor=none;fontSize=20;fontFamily=Times New Roman;fontStyle=2" vertex="1" parent="1">
          <mxGeometry x="340" y="173" width="60" height="40" as="geometry" />
        </mxCell>
        <mxCell id="YXs4LQtfpxjAGhwu3uiu-112" value="Job&lt;sub&gt;1&lt;/sub&gt;" style="text;html=1;align=center;verticalAlign=middle;resizable=0;points=[];autosize=1;strokeColor=none;fillColor=none;fontSize=20;fontFamily=Times New Roman;fontStyle=2" vertex="1" parent="1">
          <mxGeometry x="520" y="173" width="60" height="40" as="geometry" />
        </mxCell>
      </root>
    </mxGraphModel>
  </diagram>
</mxfile>
